<svg width="227" height="94" viewBox="0 0 227 94" fill="none" xmlns="http://www.w3.org/2000/svg">
<path d="M39.6979 50L52.7661 14.2667H60.1169L73.1851 50H66.2427L63.384 41.7303H49.448L46.5383 50H39.6979ZM51.2347 36.6255H61.5973L56.3905 21.7707L51.2347 36.6255ZM87.2695 50.6126C84.1045 50.6126 81.6543 49.6257 79.9186 47.6518C78.2171 45.678 77.3663 42.7853 77.3663 38.9737V24.6804H83.8493V38.3611C83.8493 40.5392 84.2917 42.2067 85.1765 43.3638C86.0614 44.5209 87.4567 45.0994 89.3625 45.0994C91.1661 45.0994 92.6465 44.4528 93.8036 43.1596C94.9947 41.8664 95.5903 40.0627 95.5903 37.7486V24.6804H102.124V50H96.356L95.8455 45.712C95.0628 47.2094 93.9227 48.4005 92.4253 49.2853C90.9619 50.1702 89.2433 50.6126 87.2695 50.6126ZM121.109 50.6126C118.727 50.6126 116.6 50.034 114.728 48.877C112.856 47.7199 111.376 46.1374 110.287 44.1295C109.198 42.1216 108.653 39.8415 108.653 37.2891C108.653 34.7368 109.198 32.4736 110.287 30.4998C111.376 28.4919 112.856 26.9265 114.728 25.8034C116.6 24.6463 118.727 24.0678 121.109 24.0678C123.015 24.0678 124.682 24.4251 126.112 25.1398C127.541 25.8545 128.698 26.8584 129.583 28.1516V13.2457H136.117V50H130.297L129.583 46.3756C128.766 47.4987 127.677 48.4856 126.316 49.3364C124.989 50.1872 123.253 50.6126 121.109 50.6126ZM122.487 44.8952C124.597 44.8952 126.316 44.1976 127.643 42.8023C129.004 41.373 129.685 39.5523 129.685 37.3402C129.685 35.1281 129.004 33.3244 127.643 31.9291C126.316 30.4998 124.597 29.7851 122.487 29.7851C120.411 29.7851 118.693 30.4828 117.331 31.8781C115.97 33.2734 115.289 35.0771 115.289 37.2891C115.289 39.5012 115.97 41.3219 117.331 42.7512C118.693 44.1806 120.411 44.8952 122.487 44.8952ZM146.931 20.7497C145.74 20.7497 144.753 20.3924 143.97 19.6777C143.222 18.963 142.847 18.0612 142.847 16.9722C142.847 15.8832 143.222 14.9983 143.97 14.3177C144.753 13.603 145.74 13.2457 146.931 13.2457C148.122 13.2457 149.092 13.603 149.841 14.3177C150.623 14.9983 151.015 15.8832 151.015 16.9722C151.015 18.0612 150.623 18.963 149.841 19.6777C149.092 20.3924 148.122 20.7497 146.931 20.7497ZM143.664 50V24.6804H150.198V50H143.664ZM169.806 50.6126C167.355 50.6126 165.143 50.051 163.169 48.928C161.23 47.805 159.681 46.2565 158.524 44.2827C157.401 42.2748 156.839 39.9606 156.839 37.3402C156.839 34.7197 157.418 32.4226 158.575 30.4488C159.732 28.4409 161.281 26.8754 163.22 25.7524C165.194 24.6293 167.406 24.0678 169.857 24.0678C172.273 24.0678 174.451 24.6293 176.391 25.7524C178.365 26.8754 179.913 28.4409 181.036 30.4488C182.193 32.4226 182.772 34.7197 182.772 37.3402C182.772 39.9606 182.193 42.2748 181.036 44.2827C179.913 46.2565 178.365 47.805 176.391 48.928C174.417 50.051 172.222 50.6126 169.806 50.6126ZM169.806 44.9463C171.507 44.9463 172.987 44.3167 174.247 43.0575C175.506 41.7643 176.135 39.8585 176.135 37.3402C176.135 34.8218 175.506 32.9331 174.247 31.6739C172.987 30.3807 171.524 29.7341 169.857 29.7341C168.121 29.7341 166.624 30.3807 165.364 31.6739C164.139 32.9331 163.527 34.8218 163.527 37.3402C163.527 39.8585 164.139 41.7643 165.364 43.0575C166.624 44.3167 168.104 44.9463 169.806 44.9463Z" fill="white"/>
<path d="M1.24126 89V79.2H3.03326V89H1.24126ZM8.18467 89C7.45667 89 6.87333 88.8227 6.43467 88.468C5.996 88.1133 5.77667 87.4833 5.77667 86.578V83.554H4.58667V82.056H5.77667L5.98667 80.194H7.56867V82.056H9.44467V83.554H7.56867V86.592C7.56867 86.928 7.63867 87.1613 7.77867 87.292C7.928 87.4133 8.18 87.474 8.53467 87.474H9.40267V89H8.18467ZM10.9872 81.356L10.8192 78.43H12.3872L12.2052 81.356H10.9872ZM16.9056 89.168C16.2896 89.168 15.7483 89.07 15.2816 88.874C14.8149 88.6687 14.4416 88.3887 14.1616 88.034C13.8816 87.6793 13.7136 87.2687 13.6576 86.802H15.4636C15.5196 87.0727 15.6689 87.306 15.9116 87.502C16.1636 87.6887 16.4856 87.782 16.8776 87.782C17.2696 87.782 17.5543 87.7027 17.7316 87.544C17.9183 87.3853 18.0116 87.2033 18.0116 86.998C18.0116 86.6993 17.8809 86.4987 17.6196 86.396C17.3583 86.284 16.9943 86.1767 16.5276 86.074C16.2289 86.0087 15.9256 85.9293 15.6176 85.836C15.3096 85.7427 15.0249 85.626 14.7636 85.486C14.5116 85.3367 14.3063 85.15 14.1476 84.926C13.9889 84.6927 13.9096 84.408 13.9096 84.072C13.9096 83.456 14.1523 82.938 14.6376 82.518C15.1323 82.098 15.8229 81.888 16.7096 81.888C17.5309 81.888 18.1843 82.0793 18.6696 82.462C19.1643 82.8447 19.4583 83.372 19.5516 84.044H17.8576C17.7549 83.5307 17.3676 83.274 16.6956 83.274C16.3596 83.274 16.0983 83.3393 15.9116 83.47C15.7343 83.6007 15.6456 83.764 15.6456 83.96C15.6456 84.1653 15.7809 84.3287 16.0516 84.45C16.3223 84.5713 16.6816 84.6833 17.1296 84.786C17.6149 84.898 18.0583 85.024 18.4596 85.164C18.8703 85.2947 19.1969 85.4953 19.4396 85.766C19.6823 86.0273 19.8036 86.4053 19.8036 86.9C19.8129 87.3293 19.7009 87.7167 19.4676 88.062C19.2343 88.4073 18.8983 88.678 18.4596 88.874C18.0209 89.07 17.5029 89.168 16.9056 89.168ZM25.127 89V82.056H26.709L26.863 82.994C27.087 82.658 27.381 82.392 27.745 82.196C28.1183 81.9907 28.5477 81.888 29.033 81.888C30.1063 81.888 30.867 82.3033 31.315 83.134C31.567 82.7513 31.903 82.448 32.323 82.224C32.7523 82 33.219 81.888 33.723 81.888C34.6283 81.888 35.3237 82.1587 35.809 82.7C36.2943 83.2413 36.537 84.0347 36.537 85.08V89H34.745V85.248C34.745 84.6507 34.6283 84.1933 34.395 83.876C34.171 83.5587 33.821 83.4 33.345 83.4C32.8597 83.4 32.4677 83.5773 32.169 83.932C31.8797 84.2867 31.735 84.7813 31.735 85.416V89H29.943V85.248C29.943 84.6507 29.8263 84.1933 29.593 83.876C29.3597 83.5587 29.0003 83.4 28.515 83.4C28.039 83.4 27.6517 83.5773 27.353 83.932C27.0637 84.2867 26.919 84.7813 26.919 85.416V89H25.127ZM41.7703 89.168C41.0983 89.168 40.4917 89.014 39.9503 88.706C39.4183 88.398 38.9937 87.9733 38.6763 87.432C38.3683 86.8813 38.2143 86.2467 38.2143 85.528C38.2143 84.8093 38.373 84.1793 38.6903 83.638C39.0077 83.0873 39.4323 82.658 39.9643 82.35C40.5057 82.042 41.1123 81.888 41.7843 81.888C42.447 81.888 43.0443 82.042 43.5763 82.35C44.1177 82.658 44.5423 83.0873 44.8503 83.638C45.1677 84.1793 45.3263 84.8093 45.3263 85.528C45.3263 86.2467 45.1677 86.8813 44.8503 87.432C44.5423 87.9733 44.1177 88.398 43.5763 88.706C43.035 89.014 42.433 89.168 41.7703 89.168ZM41.7703 87.614C42.237 87.614 42.643 87.4413 42.9883 87.096C43.3337 86.7413 43.5063 86.2187 43.5063 85.528C43.5063 84.8373 43.3337 84.3193 42.9883 83.974C42.643 83.6193 42.2417 83.442 41.7843 83.442C41.3083 83.442 40.8977 83.6193 40.5523 83.974C40.2163 84.3193 40.0483 84.8373 40.0483 85.528C40.0483 86.2187 40.2163 86.7413 40.5523 87.096C40.8977 87.4413 41.3037 87.614 41.7703 87.614ZM50.3206 89.168C49.6672 89.168 49.0839 89.0093 48.5706 88.692C48.0572 88.3747 47.6512 87.9407 47.3526 87.39C47.0539 86.8393 46.9046 86.214 46.9046 85.514C46.9046 84.814 47.0539 84.1933 47.3526 83.652C47.6512 83.1013 48.0572 82.672 48.5706 82.364C49.0839 82.0467 49.6672 81.888 50.3206 81.888C50.8432 81.888 51.3006 81.986 51.6926 82.182C52.0846 82.378 52.4019 82.6533 52.6446 83.008V78.92H54.4366V89H52.8406L52.6446 88.006C52.4206 88.314 52.1219 88.5847 51.7486 88.818C51.3846 89.0513 50.9086 89.168 50.3206 89.168ZM50.6986 87.6C51.2772 87.6 51.7486 87.4087 52.1126 87.026C52.4859 86.634 52.6726 86.1347 52.6726 85.528C52.6726 84.9213 52.4859 84.4267 52.1126 84.044C51.7486 83.652 51.2772 83.456 50.6986 83.456C50.1292 83.456 49.6579 83.6473 49.2846 84.03C48.9112 84.4127 48.7246 84.9073 48.7246 85.514C48.7246 86.1207 48.9112 86.62 49.2846 87.012C49.6579 87.404 50.1292 87.6 50.6986 87.6ZM59.0654 89.168C58.1974 89.168 57.5254 88.8973 57.0494 88.356C56.5827 87.8147 56.3494 87.0213 56.3494 85.976V82.056H58.1274V85.808C58.1274 86.4053 58.2487 86.8627 58.4914 87.18C58.734 87.4973 59.1167 87.656 59.6394 87.656C60.134 87.656 60.54 87.4787 60.8574 87.124C61.184 86.7693 61.3474 86.2747 61.3474 85.64V82.056H63.1394V89H61.5574L61.4174 87.824C61.2027 88.2347 60.89 88.5613 60.4794 88.804C60.078 89.0467 59.6067 89.168 59.0654 89.168ZM65.179 89V78.92H66.971V89H65.179ZM71.396 89.168C70.7987 89.168 70.3087 89.0747 69.926 88.888C69.5433 88.692 69.2587 88.4353 69.072 88.118C68.8853 87.8007 68.792 87.4507 68.792 87.068C68.792 86.424 69.044 85.9013 69.548 85.5C70.052 85.0987 70.808 84.898 71.816 84.898H73.58V84.73C73.58 84.254 73.4447 83.904 73.174 83.68C72.9033 83.456 72.5673 83.344 72.166 83.344C71.802 83.344 71.4847 83.4327 71.214 83.61C70.9433 83.778 70.7753 84.03 70.71 84.366H68.96C69.0067 83.862 69.1747 83.4233 69.464 83.05C69.7627 82.6767 70.1453 82.392 70.612 82.196C71.0787 81.9907 71.6013 81.888 72.18 81.888C73.1693 81.888 73.9487 82.1353 74.518 82.63C75.0873 83.1247 75.372 83.8247 75.372 84.73V89H73.846L73.678 87.88C73.4727 88.2533 73.1833 88.5613 72.81 88.804C72.446 89.0467 71.9747 89.168 71.396 89.168ZM71.802 87.768C72.3153 87.768 72.712 87.6 72.992 87.264C73.2813 86.928 73.4633 86.5127 73.538 86.018H72.012C71.536 86.018 71.1953 86.1067 70.99 86.284C70.7847 86.452 70.682 86.662 70.682 86.914C70.682 87.1847 70.7847 87.3947 70.99 87.544C71.1953 87.6933 71.466 87.768 71.802 87.768ZM77.2821 89V82.056H78.8781L79.0461 83.358C79.2981 82.91 79.6387 82.5553 80.0681 82.294C80.5067 82.0233 81.0201 81.888 81.6081 81.888V83.778H81.1041C80.7121 83.778 80.3621 83.8387 80.0541 83.96C79.7461 84.0813 79.5034 84.2913 79.3261 84.59C79.1581 84.8887 79.0741 85.304 79.0741 85.836V89H77.2821ZM88.9628 89.168C88.3655 89.168 87.8755 89.0747 87.4928 88.888C87.1101 88.692 86.8255 88.4353 86.6388 88.118C86.4521 87.8007 86.3588 87.4507 86.3588 87.068C86.3588 86.424 86.6108 85.9013 87.1148 85.5C87.6188 85.0987 88.3748 84.898 89.3828 84.898H91.1468V84.73C91.1468 84.254 91.0115 83.904 90.7408 83.68C90.4701 83.456 90.1341 83.344 89.7328 83.344C89.3688 83.344 89.0515 83.4327 88.7808 83.61C88.5101 83.778 88.3421 84.03 88.2768 84.366H86.5268C86.5735 83.862 86.7415 83.4233 87.0308 83.05C87.3295 82.6767 87.7121 82.392 88.1788 82.196C88.6455 81.9907 89.1681 81.888 89.7468 81.888C90.7361 81.888 91.5155 82.1353 92.0848 82.63C92.6541 83.1247 92.9388 83.8247 92.9388 84.73V89H91.4128L91.2448 87.88C91.0395 88.2533 90.7501 88.5613 90.3768 88.804C90.0128 89.0467 89.5415 89.168 88.9628 89.168ZM89.3688 87.768C89.8821 87.768 90.2788 87.6 90.5588 87.264C90.8481 86.928 91.0301 86.5127 91.1048 86.018H89.5788C89.1028 86.018 88.7621 86.1067 88.5568 86.284C88.3515 86.452 88.2488 86.662 88.2488 86.914C88.2488 87.1847 88.3515 87.3947 88.5568 87.544C88.7621 87.6933 89.0328 87.768 89.3688 87.768ZM94.8489 89V82.056H96.4309L96.5709 83.232C96.7855 82.8213 97.0935 82.4947 97.4949 82.252C97.9055 82.0093 98.3862 81.888 98.9369 81.888C99.7955 81.888 100.463 82.1587 100.939 82.7C101.415 83.2413 101.653 84.0347 101.653 85.08V89H99.8609V85.248C99.8609 84.6507 99.7395 84.1933 99.4969 83.876C99.2542 83.5587 98.8762 83.4 98.3629 83.4C97.8589 83.4 97.4435 83.5773 97.1169 83.932C96.7995 84.2867 96.6409 84.7813 96.6409 85.416V89H94.8489ZM106.758 89.168C106.105 89.168 105.522 89.0093 105.008 88.692C104.495 88.3747 104.089 87.9407 103.79 87.39C103.492 86.8393 103.342 86.214 103.342 85.514C103.342 84.814 103.492 84.1933 103.79 83.652C104.089 83.1013 104.495 82.672 105.008 82.364C105.522 82.0467 106.105 81.888 106.758 81.888C107.281 81.888 107.738 81.986 108.13 82.182C108.522 82.378 108.84 82.6533 109.082 83.008V78.92H110.874V89H109.278L109.082 88.006C108.858 88.314 108.56 88.5847 108.186 88.818C107.822 89.0513 107.346 89.168 106.758 89.168ZM107.136 87.6C107.715 87.6 108.186 87.4087 108.55 87.026C108.924 86.634 109.11 86.1347 109.11 85.528C109.11 84.9213 108.924 84.4267 108.55 84.044C108.186 83.652 107.715 83.456 107.136 83.456C106.567 83.456 106.096 83.6473 105.722 84.03C105.349 84.4127 105.162 84.9073 105.162 85.514C105.162 86.1207 105.349 86.62 105.722 87.012C106.096 87.404 106.567 87.6 107.136 87.6ZM119.627 89.168C118.974 89.168 118.391 89.0093 117.877 88.692C117.364 88.3747 116.958 87.9407 116.659 87.39C116.361 86.8393 116.211 86.214 116.211 85.514C116.211 84.814 116.361 84.1933 116.659 83.652C116.958 83.1013 117.364 82.672 117.877 82.364C118.391 82.0467 118.974 81.888 119.627 81.888C120.15 81.888 120.607 81.986 120.999 82.182C121.391 82.378 121.709 82.6533 121.951 83.008V78.92H123.743V89H122.147L121.951 88.006C121.727 88.314 121.429 88.5847 121.055 88.818C120.691 89.0513 120.215 89.168 119.627 89.168ZM120.005 87.6C120.584 87.6 121.055 87.4087 121.419 87.026C121.793 86.634 121.979 86.1347 121.979 85.528C121.979 84.9213 121.793 84.4267 121.419 84.044C121.055 83.652 120.584 83.456 120.005 83.456C119.436 83.456 118.965 83.6473 118.591 84.03C118.218 84.4127 118.031 84.9073 118.031 85.514C118.031 86.1207 118.218 86.62 118.591 87.012C118.965 87.404 119.436 87.6 120.005 87.6ZM129.142 89.168C128.442 89.168 127.821 89.0187 127.28 88.72C126.739 88.4213 126.314 88.0013 126.006 87.46C125.698 86.9187 125.544 86.2933 125.544 85.584C125.544 84.8653 125.693 84.226 125.992 83.666C126.3 83.106 126.72 82.672 127.252 82.364C127.793 82.0467 128.428 81.888 129.156 81.888C129.837 81.888 130.439 82.0373 130.962 82.336C131.485 82.6347 131.891 83.0453 132.18 83.568C132.479 84.0813 132.628 84.6553 132.628 85.29C132.628 85.3927 132.623 85.5 132.614 85.612C132.614 85.724 132.609 85.8407 132.6 85.962H127.322C127.359 86.5033 127.546 86.928 127.882 87.236C128.227 87.544 128.643 87.698 129.128 87.698C129.492 87.698 129.795 87.6187 130.038 87.46C130.29 87.292 130.477 87.0773 130.598 86.816H132.418C132.287 87.2547 132.068 87.656 131.76 88.02C131.461 88.3747 131.088 88.6547 130.64 88.86C130.201 89.0653 129.702 89.168 129.142 89.168ZM129.156 83.344C128.717 83.344 128.33 83.47 127.994 83.722C127.658 83.9647 127.443 84.338 127.35 84.842H130.808C130.78 84.3847 130.612 84.0207 130.304 83.75C129.996 83.4793 129.613 83.344 129.156 83.344ZM137.205 89.168C136.589 89.168 136.048 89.07 135.581 88.874C135.115 88.6687 134.741 88.3887 134.461 88.034C134.181 87.6793 134.013 87.2687 133.957 86.802H135.763C135.819 87.0727 135.969 87.306 136.211 87.502C136.463 87.6887 136.785 87.782 137.177 87.782C137.569 87.782 137.854 87.7027 138.031 87.544C138.218 87.3853 138.311 87.2033 138.311 86.998C138.311 86.6993 138.181 86.4987 137.919 86.396C137.658 86.284 137.294 86.1767 136.827 86.074C136.529 86.0087 136.225 85.9293 135.917 85.836C135.609 85.7427 135.325 85.626 135.063 85.486C134.811 85.3367 134.606 85.15 134.447 84.926C134.289 84.6927 134.209 84.408 134.209 84.072C134.209 83.456 134.452 82.938 134.937 82.518C135.432 82.098 136.123 81.888 137.009 81.888C137.831 81.888 138.484 82.0793 138.969 82.462C139.464 82.8447 139.758 83.372 139.851 84.044H138.157C138.055 83.5307 137.667 83.274 136.995 83.274C136.659 83.274 136.398 83.3393 136.211 83.47C136.034 83.6007 135.945 83.764 135.945 83.96C135.945 84.1653 136.081 84.3287 136.351 84.45C136.622 84.5713 136.981 84.6833 137.429 84.786C137.915 84.898 138.358 85.024 138.759 85.164C139.17 85.2947 139.497 85.4953 139.739 85.766C139.982 86.0273 140.103 86.4053 140.103 86.9C140.113 87.3293 140.001 87.7167 139.767 88.062C139.534 88.4073 139.198 88.678 138.759 88.874C138.321 89.07 137.803 89.168 137.205 89.168ZM142.857 80.978C142.53 80.978 142.259 80.88 142.045 80.684C141.839 80.488 141.737 80.2407 141.737 79.942C141.737 79.6433 141.839 79.4007 142.045 79.214C142.259 79.018 142.53 78.92 142.857 78.92C143.183 78.92 143.449 79.018 143.655 79.214C143.869 79.4007 143.977 79.6433 143.977 79.942C143.977 80.2407 143.869 80.488 143.655 80.684C143.449 80.88 143.183 80.978 142.857 80.978ZM141.961 89V82.056H143.753V89H141.961ZM148.763 86.928C148.427 86.928 148.114 86.8907 147.825 86.816L147.307 87.334C147.466 87.418 147.68 87.488 147.951 87.544C148.222 87.6 148.66 87.656 149.267 87.712C150.191 87.796 150.863 88.0153 151.283 88.37C151.703 88.7247 151.913 89.2147 151.913 89.84C151.913 90.2507 151.801 90.638 151.577 91.002C151.353 91.3753 151.008 91.674 150.541 91.898C150.074 92.1313 149.477 92.248 148.749 92.248C147.76 92.248 146.962 92.0613 146.355 91.688C145.748 91.324 145.445 90.7733 145.445 90.036C145.445 89.4107 145.748 88.8693 146.355 88.412C146.168 88.328 146.005 88.2393 145.865 88.146C145.734 88.0527 145.618 87.9547 145.515 87.852V87.53L146.733 86.242C146.192 85.766 145.921 85.1547 145.921 84.408C145.921 83.9413 146.033 83.5167 146.257 83.134C146.49 82.7513 146.817 82.448 147.237 82.224C147.657 82 148.166 81.888 148.763 81.888C149.155 81.888 149.519 81.944 149.855 82.056H152.487V83.148L151.297 83.232C151.484 83.5867 151.577 83.9787 151.577 84.408C151.577 84.8747 151.465 85.2993 151.241 85.682C151.017 86.0647 150.69 86.368 150.261 86.592C149.841 86.816 149.342 86.928 148.763 86.928ZM148.763 85.556C149.127 85.556 149.426 85.458 149.659 85.262C149.902 85.066 150.023 84.786 150.023 84.422C150.023 84.058 149.902 83.778 149.659 83.582C149.426 83.386 149.127 83.288 148.763 83.288C148.38 83.288 148.072 83.386 147.839 83.582C147.606 83.778 147.489 84.058 147.489 84.422C147.489 84.786 147.606 85.066 147.839 85.262C148.072 85.458 148.38 85.556 148.763 85.556ZM147.083 89.854C147.083 90.1993 147.242 90.456 147.559 90.624C147.886 90.8013 148.282 90.89 148.749 90.89C149.197 90.89 149.561 90.7967 149.841 90.61C150.121 90.4327 150.261 90.19 150.261 89.882C150.261 89.63 150.168 89.42 149.981 89.252C149.804 89.084 149.444 88.9813 148.903 88.944C148.52 88.916 148.166 88.874 147.839 88.818C147.568 88.9673 147.372 89.1307 147.251 89.308C147.139 89.4853 147.083 89.6673 147.083 89.854ZM153.994 89V82.056H155.576L155.716 83.232C155.93 82.8213 156.238 82.4947 156.64 82.252C157.05 82.0093 157.531 81.888 158.082 81.888C158.94 81.888 159.608 82.1587 160.084 82.7C160.56 83.2413 160.798 84.0347 160.798 85.08V89H159.006V85.248C159.006 84.6507 158.884 84.1933 158.642 83.876C158.399 83.5587 158.021 83.4 157.508 83.4C157.004 83.4 156.588 83.5773 156.262 83.932C155.944 84.2867 155.786 84.7813 155.786 85.416V89H153.994ZM166.085 89.168C165.385 89.168 164.765 89.0187 164.223 88.72C163.682 88.4213 163.257 88.0013 162.949 87.46C162.641 86.9187 162.487 86.2933 162.487 85.584C162.487 84.8653 162.637 84.226 162.935 83.666C163.243 83.106 163.663 82.672 164.195 82.364C164.737 82.0467 165.371 81.888 166.099 81.888C166.781 81.888 167.383 82.0373 167.905 82.336C168.428 82.6347 168.834 83.0453 169.123 83.568C169.422 84.0813 169.571 84.6553 169.571 85.29C169.571 85.3927 169.567 85.5 169.557 85.612C169.557 85.724 169.553 85.8407 169.543 85.962H164.265C164.303 86.5033 164.489 86.928 164.825 87.236C165.171 87.544 165.586 87.698 166.071 87.698C166.435 87.698 166.739 87.6187 166.981 87.46C167.233 87.292 167.42 87.0773 167.541 86.816H169.361C169.231 87.2547 169.011 87.656 168.703 88.02C168.405 88.3747 168.031 88.6547 167.583 88.86C167.145 89.0653 166.645 89.168 166.085 89.168ZM166.099 83.344C165.661 83.344 165.273 83.47 164.937 83.722C164.601 83.9647 164.387 84.338 164.293 84.842H167.751C167.723 84.3847 167.555 84.0207 167.247 83.75C166.939 83.4793 166.557 83.344 166.099 83.344ZM174.471 89.168C173.817 89.168 173.234 89.0093 172.721 88.692C172.207 88.3747 171.801 87.9407 171.503 87.39C171.204 86.8393 171.055 86.214 171.055 85.514C171.055 84.814 171.204 84.1933 171.503 83.652C171.801 83.1013 172.207 82.672 172.721 82.364C173.234 82.0467 173.817 81.888 174.471 81.888C174.993 81.888 175.451 81.986 175.843 82.182C176.235 82.378 176.552 82.6533 176.795 83.008V78.92H178.587V89H176.991L176.795 88.006C176.571 88.314 176.272 88.5847 175.899 88.818C175.535 89.0513 175.059 89.168 174.471 89.168ZM174.849 87.6C175.427 87.6 175.899 87.4087 176.263 87.026C176.636 86.634 176.823 86.1347 176.823 85.528C176.823 84.9213 176.636 84.4267 176.263 84.044C175.899 83.652 175.427 83.456 174.849 83.456C174.279 83.456 173.808 83.6473 173.435 84.03C173.061 84.4127 172.875 84.9073 172.875 85.514C172.875 86.1207 173.061 86.62 173.435 87.012C173.808 87.404 174.279 87.6 174.849 87.6ZM187.241 89C186.513 89 185.93 88.8227 185.491 88.468C185.053 88.1133 184.833 87.4833 184.833 86.578V83.554H183.643V82.056H184.833L185.043 80.194H186.625V82.056H188.501V83.554H186.625V86.592C186.625 86.928 186.695 87.1613 186.835 87.292C186.985 87.4133 187.237 87.474 187.591 87.474H188.459V89H187.241ZM193.394 89.168C192.722 89.168 192.115 89.014 191.574 88.706C191.042 88.398 190.617 87.9733 190.3 87.432C189.992 86.8813 189.838 86.2467 189.838 85.528C189.838 84.8093 189.997 84.1793 190.314 83.638C190.631 83.0873 191.056 82.658 191.588 82.35C192.129 82.042 192.736 81.888 193.408 81.888C194.071 81.888 194.668 82.042 195.2 82.35C195.741 82.658 196.166 83.0873 196.474 83.638C196.791 84.1793 196.95 84.8093 196.95 85.528C196.95 86.2467 196.791 86.8813 196.474 87.432C196.166 87.9733 195.741 88.398 195.2 88.706C194.659 89.014 194.057 89.168 193.394 89.168ZM193.394 87.614C193.861 87.614 194.267 87.4413 194.612 87.096C194.957 86.7413 195.13 86.2187 195.13 85.528C195.13 84.8373 194.957 84.3193 194.612 83.974C194.267 83.6193 193.865 83.442 193.408 83.442C192.932 83.442 192.521 83.6193 192.176 83.974C191.84 84.3193 191.672 84.8373 191.672 85.528C191.672 86.2187 191.84 86.7413 192.176 87.096C192.521 87.4413 192.927 87.614 193.394 87.614ZM202.288 89V78.92H204.08V89H202.288ZM208.505 89.168C207.908 89.168 207.418 89.0747 207.035 88.888C206.653 88.692 206.368 88.4353 206.181 88.118C205.995 87.8007 205.901 87.4507 205.901 87.068C205.901 86.424 206.153 85.9013 206.657 85.5C207.161 85.0987 207.917 84.898 208.925 84.898H210.689V84.73C210.689 84.254 210.554 83.904 210.283 83.68C210.013 83.456 209.677 83.344 209.275 83.344C208.911 83.344 208.594 83.4327 208.323 83.61C208.053 83.778 207.885 84.03 207.819 84.366H206.069C206.116 83.862 206.284 83.4233 206.573 83.05C206.872 82.6767 207.255 82.392 207.721 82.196C208.188 81.9907 208.711 81.888 209.289 81.888C210.279 81.888 211.058 82.1353 211.627 82.63C212.197 83.1247 212.481 83.8247 212.481 84.73V89H210.955L210.787 87.88C210.582 88.2533 210.293 88.5613 209.919 88.804C209.555 89.0467 209.084 89.168 208.505 89.168ZM208.911 87.768C209.425 87.768 209.821 87.6 210.101 87.264C210.391 86.928 210.573 86.5127 210.647 86.018H209.121C208.645 86.018 208.305 86.1067 208.099 86.284C207.894 86.452 207.791 86.662 207.791 86.914C207.791 87.1847 207.894 87.3947 208.099 87.544C208.305 87.6933 208.575 87.768 208.911 87.768ZM217.261 89.168C216.645 89.168 216.104 89.07 215.637 88.874C215.171 88.6687 214.797 88.3887 214.517 88.034C214.237 87.6793 214.069 87.2687 214.013 86.802H215.819C215.875 87.0727 216.025 87.306 216.267 87.502C216.519 87.6887 216.841 87.782 217.233 87.782C217.625 87.782 217.91 87.7027 218.087 87.544C218.274 87.3853 218.367 87.2033 218.367 86.998C218.367 86.6993 218.237 86.4987 217.975 86.396C217.714 86.284 217.35 86.1767 216.883 86.074C216.585 86.0087 216.281 85.9293 215.973 85.836C215.665 85.7427 215.381 85.626 215.119 85.486C214.867 85.3367 214.662 85.15 214.503 84.926C214.345 84.6927 214.265 84.408 214.265 84.072C214.265 83.456 214.508 82.938 214.993 82.518C215.488 82.098 216.179 81.888 217.065 81.888C217.887 81.888 218.54 82.0793 219.025 82.462C219.52 82.8447 219.814 83.372 219.907 84.044H218.213C218.111 83.5307 217.723 83.274 217.051 83.274C216.715 83.274 216.454 83.3393 216.267 83.47C216.09 83.6007 216.001 83.764 216.001 83.96C216.001 84.1653 216.137 84.3287 216.407 84.45C216.678 84.5713 217.037 84.6833 217.485 84.786C217.971 84.898 218.414 85.024 218.815 85.164C219.226 85.2947 219.553 85.4953 219.795 85.766C220.038 86.0273 220.159 86.4053 220.159 86.9C220.169 87.3293 220.057 87.7167 219.823 88.062C219.59 88.4073 219.254 88.678 218.815 88.874C218.377 89.07 217.859 89.168 217.261 89.168ZM224.822 89C224.094 89 223.511 88.8227 223.072 88.468C222.633 88.1133 222.414 87.4833 222.414 86.578V83.554H221.224V82.056H222.414L222.624 80.194H224.206V82.056H226.082V83.554H224.206V86.592C224.206 86.928 224.276 87.1613 224.416 87.292C224.565 87.4133 224.817 87.474 225.172 87.474H226.04V89H224.822Z" fill="white"/>
</svg>
