<svg width="55" height="18" viewBox="0 0 55 18" fill="none" xmlns="http://www.w3.org/2000/svg">
<path d="M16.9886 3.16748C14.6961 3.16748 13.0628 4.73486 13.0628 6.88086V6.89551C13.0628 8.90234 14.4837 10.3818 16.5125 10.3818C17.9627 10.3818 18.8855 9.64209 19.2737 8.80713H19.4202C19.3836 10.9458 18.6878 12.7109 16.9446 12.7109C16.0144 12.7109 15.3626 12.2275 15.0843 11.4878L15.0623 11.4146H13.2019L13.2166 11.4951C13.5535 13.1138 15.0037 14.2637 16.9446 14.2637C19.6033 14.2637 21.2073 12.1543 21.2073 8.59473V8.58008C21.2073 4.77148 19.2444 3.16748 16.9886 3.16748ZM16.9812 8.93164C15.7801 8.93164 14.9085 8.05273 14.9085 6.82959V6.81494C14.9085 5.63574 15.8387 4.70557 17.0032 4.70557C18.1751 4.70557 19.0906 5.65039 19.0906 6.85889V6.87354C19.0906 8.06738 18.1751 8.93164 16.9812 8.93164ZM24.3675 7.15186C25.0413 7.15186 25.5321 6.63916 25.5321 5.99463C25.5321 5.34277 25.0413 4.8374 24.3675 4.8374C23.701 4.8374 23.203 5.34277 23.203 5.99463C23.203 6.63916 23.701 7.15186 24.3675 7.15186ZM24.3675 12.5864C25.0413 12.5864 25.5321 12.0811 25.5321 11.4292C25.5321 10.7773 25.0413 10.272 24.3675 10.272C23.701 10.272 23.203 10.7773 23.203 11.4292C23.203 12.0811 23.701 12.5864 24.3675 12.5864ZM32.6547 14H34.4637V11.9712H35.8846V10.4111H34.4637V3.43115H31.7904C30.3549 5.61377 28.8534 8.04541 27.4838 10.4258V11.9712H32.6547V14ZM29.2416 10.4551V10.3452C30.267 8.55078 31.4901 6.59521 32.5741 4.93994H32.684V10.4551H29.2416ZM40.0995 14H41.9892V3.43115H40.1068L37.3456 5.37207V7.15186L39.975 5.2915H40.0995V14Z" fill="white"/>
</svg>
